<svg width="20" height="21" viewBox="0 0 20 21" fill="none" xmlns="http://www.w3.org/2000/svg">
<path d="M9.99999 19.4583C9.49999 19.4583 9.00832 19.3417 8.60832 19.1167L4.66665 16.8417C3.03332 15.7417 2.92499 15.5417 2.92499 13.8167V9.68333C2.92499 7.95833 3.03332 7.75833 4.63332 6.68333L8.61665 4.38333C9.40832 3.925 10.6 3.925 11.3917 4.38333L15.3333 6.65833C16.9667 7.75833 17.075 7.95833 17.075 9.68333V13.8167C17.075 15.5417 16.9667 15.7417 15.3667 16.8167L11.3833 19.1167C10.9917 19.35 10.4917 19.4583 9.99999 19.4583ZM9.99999 5.29166C9.71665 5.29166 9.43332 5.35 9.23332 5.46666L5.29165 7.74166C4.17499 8.5 4.17499 8.5 4.17499 9.68333V13.8167C4.17499 15 4.17499 15 5.33332 15.7833L9.24165 18.0333C9.64165 18.2667 10.3667 18.2667 10.7667 18.0333L14.7083 15.7583C15.825 15 15.825 15 15.825 13.8167V9.68333C15.825 8.5 15.825 8.5 14.6667 7.71666L10.7583 5.46666C10.5667 5.35 10.2833 5.29166 9.99999 5.29166Z" fill="#333333"/>
<path d="M14.5834 7.48332C14.2417 7.48332 13.9584 7.19999 13.9584 6.85832V4.66666C13.9584 3.34999 13.4 2.79166 12.0834 2.79166H7.91669C6.60002 2.79166 6.04169 3.34999 6.04169 4.66666V6.79999C6.04169 7.14166 5.75835 7.42499 5.41669 7.42499C5.07502 7.42499 4.79169 7.14999 4.79169 6.79999V4.66666C4.79169 2.64999 5.90002 1.54166 7.91669 1.54166H12.0834C14.1 1.54166 15.2084 2.64999 15.2084 4.66666V6.85832C15.2084 7.19999 14.925 7.48332 14.5834 7.48332Z" fill="#333333"/>
<path d="M11.3583 15.1917C11.1833 15.1917 11 15.1583 10.8166 15.0833L9.99997 14.7667L9.18331 15.0917C8.74164 15.2667 8.29164 15.225 7.95831 14.9833C7.62497 14.7417 7.44997 14.325 7.47497 13.85L7.52497 12.975L6.96664 12.3C6.66664 11.925 6.56664 11.4917 6.69997 11.0917C6.82497 10.7 7.16664 10.4 7.62497 10.2833L8.47497 10.0667L8.94997 9.32501C9.45831 8.52501 10.55 8.52501 11.0583 9.32501L11.5333 10.0667L12.3833 10.2833C12.8416 10.4 13.1833 10.7 13.3083 11.0917C13.4333 11.4833 13.3333 11.925 13.0333 12.2917L12.475 12.9667L12.525 13.8417C12.55 14.3167 12.375 14.725 12.0416 14.975C11.8416 15.1167 11.6083 15.1917 11.3583 15.1917ZM7.93331 11.5L8.49164 12.175C8.68331 12.4 8.79164 12.7583 8.77497 13.05L8.72497 13.925L9.54164 13.6C9.81664 13.4917 10.1833 13.4917 10.4583 13.6L11.275 13.925L11.225 13.05C11.2083 12.7583 11.3166 12.4083 11.5083 12.175L12.0666 11.5L11.2166 11.2833C10.9333 11.2083 10.6333 10.9917 10.475 10.75L10.0083 10.0167L9.53331 10.75C9.37497 11 9.07497 11.2167 8.79164 11.2917L7.93331 11.5Z" fill="#333333"/>
</svg>
